<svg width="35" height="35" viewBox="0 0 35 35" fill="none" xmlns="http://www.w3.org/2000/svg">
<path d="M25.2037 20.25L22.6637 19.96C22.365 19.9249 22.0623 19.958 21.7782 20.0567C21.4942 20.1554 21.2362 20.3173 21.0237 20.53L19.1837 22.37C16.3449 20.9262 14.0375 18.6188 12.5937 15.78L14.4437 13.93C14.8737 13.5 15.0837 12.9 15.0137 12.29L14.7237 9.77C14.667 9.28218 14.4329 8.83224 14.0659 8.50585C13.699 8.17946 13.2248 7.99942 12.7337 8H11.0037C9.87367 8 8.93367 8.94 9.00367 10.07C9.53367 18.61 16.3637 25.43 24.8937 25.96C26.0237 26.03 26.9637 25.09 26.9637 23.96V22.23C26.9737 21.22 26.2137 20.37 25.2037 20.25Z" fill="#FCECC6" fill-opacity="0.5"/>
</svg>
