<svg width="12" height="12" viewBox="0 0 12 12" fill="none" xmlns="http://www.w3.org/2000/svg">
<path d="M10.7026 4.0545L7.91203 1.29678L8.83127 0.377545C9.08297 0.125848 9.39223 0 9.75905 0C10.1254 0 10.4345 0.125848 10.6862 0.377545L11.6054 1.29678C11.8571 1.54848 11.9884 1.85227 11.9994 2.20815C12.0103 2.56359 11.8899 2.86715 11.6382 3.11885L10.7026 4.0545ZM0.6566 11.9829C0.470563 11.9829 0.31473 11.9199 0.189101 11.7938C0.0630337 11.6682 0 11.5124 0 11.3263V9.47145C0 9.38391 0.016415 9.29921 0.049245 9.21735C0.082075 9.13506 0.13132 9.06108 0.19698 8.99542L6.95996 2.23244L9.75051 5.02299L2.98753 11.786C2.92187 11.8516 2.84811 11.9009 2.76626 11.9337C2.68396 11.9665 2.59904 11.9829 2.51149 11.9829H0.6566Z" fill="#9B5134"/>
</svg>
