<svg width="9" height="16" viewBox="0 0 9 16" fill="none" xmlns="http://www.w3.org/2000/svg">
<path d="M6.69857 14.943L0.377868 8.62227C0.240461 8.48486 0.143361 8.336 0.0865658 8.17569C0.028855 8.01539 0 7.84363 0 7.66042C0 7.47721 0.028855 7.30545 0.0865658 7.14514C0.143361 6.98484 0.240461 6.83598 0.377868 6.69857L6.69857 0.377868C6.95049 0.125956 7.2711 0 7.66042 0C8.04974 0 8.37035 0.125956 8.62227 0.377868C8.87418 0.62978 9.00013 0.950396 9.00013 1.33971C9.00013 1.72903 8.87418 2.04965 8.62227 2.30156L3.26341 7.66042L8.62227 13.0193C8.87418 13.2712 9.00013 13.5918 9.00013 13.9811C9.00013 14.3704 8.87418 14.6911 8.62227 14.943C8.37035 15.1949 8.04974 15.3208 7.66042 15.3208C7.2711 15.3208 6.95049 15.1949 6.69857 14.943Z" fill="#FCECC6"/>
</svg>
