<svg width="35" height="35" viewBox="0 0 35 35" fill="none" xmlns="http://www.w3.org/2000/svg">
<path d="M22 7C21.45 7 21 7.45 21 8V9H13V8C13 7.45 12.55 7 12 7C11.45 7 11 7.45 11 8V9H10C8.89 9 8.01 9.9 8.01 11L8 25C8 25.5304 8.21071 26.0391 8.58579 26.4142C8.96086 26.7893 9.46957 27 10 27H24C25.1 27 26 26.1 26 25V11C26 9.9 25.1 9 24 9H23V8C23 7.45 22.55 7 22 7ZM24 25H10V15H24V25ZM16 18C16 17.45 16.45 17 17 17C17.55 17 18 17.45 18 18C18 18.55 17.55 19 17 19C16.45 19 16 18.55 16 18ZM12 18C12 17.45 12.45 17 13 17C13.55 17 14 17.45 14 18C14 18.55 13.55 19 13 19C12.45 19 12 18.55 12 18ZM20 18C20 17.45 20.45 17 21 17C21.55 17 22 17.45 22 18C22 18.55 21.55 19 21 19C20.45 19 20 18.55 20 18ZM16 22C16 21.45 16.45 21 17 21C17.55 21 18 21.45 18 22C18 22.55 17.55 23 17 23C16.45 23 16 22.55 16 22ZM12 22C12 21.45 12.45 21 13 21C13.55 21 14 21.45 14 22C14 22.55 13.55 23 13 23C12.45 23 12 22.55 12 22ZM20 22C20 21.45 20.45 21 21 21C21.55 21 22 21.45 22 22C22 22.55 21.55 23 21 23C20.45 23 20 22.55 20 22Z" fill="#FCECC6" fill-opacity="0.5"/>
</svg>
