<svg width="40" height="40" viewBox="0 0 40 40" fill="none" xmlns="http://www.w3.org/2000/svg">
<circle cx="19.8561" cy="19.7737" r="17.3073" fill="#70392B"/>
<circle cx="20" cy="20" r="19.5683" fill="#FCECC6" stroke="#70392B" stroke-width="0.863309"/>
<circle cx="20.0206" cy="20.0206" r="18.1295" fill="#70392B"/>
<mask id="mask0_64_2884" style="mask-type:luminance" maskUnits="userSpaceOnUse" x="12" y="15" width="14" height="11">
<path d="M12.6451 24.9178L25.1265 15.8663L25.2503 16.0371L12.7689 25.0886L12.6451 24.9178Z" fill="white"/>
</mask>
<g mask="url(#mask0_64_2884)">
<path d="M12.6451 24.9178L25.1265 15.8663L25.2503 16.0371L12.7689 25.0886L12.6451 24.9178Z" fill="#FCECC6"/>
</g>
<mask id="mask1_64_2884" style="mask-type:luminance" maskUnits="userSpaceOnUse" x="13" y="24" width="15" height="5">
<path d="M13.6393 24.3063L27.9935 28.1218L27.9099 28.3155L13.5556 24.4999L13.6393 24.3063Z" fill="white"/>
</mask>
<g mask="url(#mask1_64_2884)">
<path d="M13.6393 24.3063L27.9935 28.1218L27.9099 28.3155L13.5556 24.4999L13.6393 24.3063Z" fill="#FCECC6"/>
</g>
<mask id="mask2_64_2884" style="mask-type:luminance" maskUnits="userSpaceOnUse" x="13" y="9" width="2" height="16">
<path d="M13.6599 24.3334L14.4928 9.50396L14.2829 9.52336L13.4498 24.3526L13.6599 24.3334Z" fill="white"/>
</mask>
<g mask="url(#mask2_64_2884)">
<path d="M13.6599 24.3334L14.4928 9.50396L14.2829 9.52336L13.4498 24.3526L13.6599 24.3334Z" fill="#FCECC6"/>
</g>
<mask id="mask3_64_2884" style="mask-type:luminance" maskUnits="userSpaceOnUse" x="10" y="24" width="4" height="4">
<path d="M12.5769 24.9835L12.7062 25.0041L12.6856 25.1334L11.2661 26.1628L11.1064 27.1655L12.5257 26.1363L12.6663 26.0343L13.2354 25.6216L13.4159 24.4894L12.2836 24.309L11.647 24.7706L11.5738 24.8237L10.1545 25.853L11.1575 26.0129L12.5769 24.9835Z" fill="white"/>
</mask>
<g mask="url(#mask3_64_2884)">
<path d="M12.5769 24.9835L12.7062 25.0041L12.6856 25.1334L11.2661 26.1628L11.1064 27.1655L12.5257 26.1363L12.6663 26.0343L13.2354 25.6216L13.4159 24.4894L12.2836 24.309L11.647 24.7706L11.5738 24.8237L10.1545 25.853L11.1575 26.0129L12.5769 24.9835Z" fill="#FCECC6"/>
</g>
<mask id="mask4_64_2884" style="mask-type:luminance" maskUnits="userSpaceOnUse" x="26" y="13" width="4" height="2">
<path d="M27.9777 14.9913L29.1051 13.1112L26.9678 13.5987L27.6973 14.1321L27.9777 14.9913Z" fill="white"/>
</mask>
<g mask="url(#mask4_64_2884)">
<path d="M27.9777 14.9913L29.1051 13.1112L26.9678 13.5987L27.6973 14.1321L27.9777 14.9913Z" fill="#FCECC6"/>
</g>
<mask id="mask5_64_2884" style="mask-type:luminance" maskUnits="userSpaceOnUse" x="13" y="5" width="20" height="26">
<path d="M24.1872 16.7905C30.279 19.3492 26.9362 23.6873 27.0147 27.0446C27.0691 29.3656 28.9779 30.5603 30.3103 30.2491C31.9829 29.8586 32.5753 28.1896 32.146 27.1831C31.5819 29.5256 28.228 29.5137 27.7868 26.8967C28.0746 27.5827 28.5993 27.9093 29.3424 27.8688C26.6196 26.1383 30.5293 18.0547 26.3937 16.2423C27.4098 16.2582 28.2291 17.077 28.7365 18.0116C28.2946 15.827 26.3742 15.6187 25.6641 15.7194C25.9805 15.0759 26.3793 13.1859 24.4401 12.0871C25.1707 12.8597 25.6945 13.8929 25.3939 14.8636C24.956 10.3696 16.0577 11.5741 15.2589 8.44865C14.9896 9.14234 15.1368 9.74237 15.6996 10.2293C13.349 8.99661 14.3799 5.80518 16.7816 5.99663C15.9584 5.27607 14.1879 5.32063 13.297 6.78886C12.5874 7.95883 13.1299 10.1444 15.3192 10.9172C18.4859 12.0349 23.6477 10.2052 24.1872 16.7905Z" fill="white"/>
</mask>
<g mask="url(#mask5_64_2884)">
<path d="M24.1872 16.7905C30.279 19.3492 26.9362 23.6873 27.0147 27.0446C27.0691 29.3656 28.9779 30.5603 30.3103 30.2491C31.9829 29.8586 32.5753 28.1896 32.146 27.1831C31.5819 29.5256 28.228 29.5137 27.7868 26.8967C28.0746 27.5827 28.5993 27.9093 29.3424 27.8688C26.6196 26.1383 30.5293 18.0547 26.3937 16.2423C27.4098 16.2582 28.2291 17.077 28.7365 18.0116C28.2946 15.827 26.3742 15.6187 25.6641 15.7194C25.9805 15.0759 26.3793 13.1859 24.4401 12.0871C25.1707 12.8597 25.6945 13.8929 25.3939 14.8636C24.956 10.3696 16.0577 11.5741 15.2589 8.44865C14.9896 9.14234 15.1368 9.74237 15.6996 10.2293C13.349 8.99661 14.3799 5.80518 16.7816 5.99663C15.9584 5.27607 14.1879 5.32063 13.297 6.78886C12.5874 7.95883 13.1299 10.1444 15.3192 10.9172C18.4859 12.0349 23.6477 10.2052 24.1872 16.7905Z" fill="#FCECC6"/>
</g>
</svg>
