<svg width="11" height="7" viewBox="0 0 11 7" fill="none" xmlns="http://www.w3.org/2000/svg">
<path d="M0.271293 1.65247L4.80941 6.19059C4.90807 6.28924 5.01494 6.35896 5.13004 6.39974C5.24514 6.44117 5.36846 6.46189 5.5 6.46189C5.63154 6.46189 5.75485 6.44117 5.86995 6.39974C5.98505 6.35896 6.09192 6.28924 6.19058 6.19059L10.7287 1.65247C10.9096 1.4716 11 1.24141 11 0.961885C11 0.682363 10.9096 0.452169 10.7287 0.271302C10.5478 0.0904342 10.3176 0 10.0381 0C9.75859 0 9.5284 0.0904342 9.34753 0.271302L5.5 4.11884L1.65246 0.271302C1.47159 0.0904342 1.2414 0 0.961875 0C0.682353 0 0.452159 0.0904342 0.271293 0.271302C0.0904256 0.452169 -9.12939e-06 0.682363 -9.12939e-06 0.961885C-9.12939e-06 1.24141 0.0904256 1.4716 0.271293 1.65247Z" fill="#FCECC6"/>
</svg>
