<svg width="35" height="35" viewBox="0 0 35 35" fill="none" xmlns="http://www.w3.org/2000/svg">
<path d="M23 8L18 13M23 8H19M23 8V12M15 21V27M12 24H18M11 16C11 17.0609 11.4214 18.0783 12.1716 18.8284C12.9217 19.5786 13.9391 20 15 20C16.0609 20 17.0783 19.5786 17.8284 18.8284C18.5786 18.0783 19 17.0609 19 16C19 14.9391 18.5786 13.9217 17.8284 13.1716C17.0783 12.4214 16.0609 12 15 12C13.9391 12 12.9217 12.4214 12.1716 13.1716C11.4214 13.9217 11 14.9391 11 16Z" stroke="#FCECC6" stroke-opacity="0.5" stroke-width="2" stroke-linecap="round" stroke-linejoin="round"/>
</svg>
