<svg width="34" height="34" viewBox="0 0 34 34" fill="none" xmlns="http://www.w3.org/2000/svg">
<path d="M17.0002 1.78555C8.59775 1.78555 1.78616 8.59721 1.78616 16.9997C1.78616 25.4022 8.59775 32.2138 17.0002 32.2138C25.4027 32.2138 32.2142 25.4022 32.2142 16.9997C32.2142 8.59721 25.4027 1.78555 17.0002 1.78555Z" fill="#70392B"/>
<path d="M17 33.2045C8.06473 33.2045 0.795463 25.9351 0.795463 16.9999C0.795463 8.06459 8.06473 0.795334 17 0.795334C25.9352 0.795334 33.2046 8.06459 33.2046 16.9999C33.2046 25.9351 25.9352 33.2045 17 33.2045ZM32.6639 10.3826C32.2379 9.37517 31.7104 8.40343 31.0965 7.49467C30.4884 6.59456 29.79 5.74816 29.0209 4.97906C28.2516 4.20996 27.4052 3.51154 26.5051 2.90346C25.5964 2.2894 24.6246 1.76205 23.6174 1.33603C21.5212 0.449267 19.2948 -0.000162665 17 -0.000162665C14.7051 -0.000162665 12.4787 0.449267 10.3827 1.33603C9.37527 1.76205 8.4036 2.2894 7.49477 2.90346C6.5947 3.51154 5.74831 4.20996 4.9791 4.97906C4.20988 5.74816 3.5116 6.59456 2.90346 7.49467C2.2895 8.40343 1.76223 9.37517 1.33611 10.3826C0.449445 12.4786 0 14.705 0 16.9999C0 19.2947 0.449445 21.5211 1.33611 23.6173C1.76223 24.6245 2.2895 25.5963 2.90346 26.505C3.5116 27.4051 4.20988 28.2515 4.9791 29.0208C5.74831 29.7899 6.5947 30.4883 7.49477 31.0964C8.4036 31.7103 9.37527 32.2378 10.3827 32.6638C12.4787 33.5504 14.7051 34 17 34C19.2948 34 21.5212 33.5504 23.6174 32.6638C24.6246 32.2378 25.5964 31.7103 26.5051 31.0964C27.4052 30.4883 28.2516 29.7899 29.0209 29.0208C29.79 28.2515 30.4884 27.4051 31.0965 26.505C31.7104 25.5963 32.2379 24.6245 32.6639 23.6173C33.5505 21.5211 34.0001 19.2947 34.0001 16.9999C34.0001 14.705 33.5505 12.4786 32.6639 10.3826Z" fill="#70392B"/>
<path d="M23.3185 8.0959L22.0249 10.0103H19.3345C19.6103 10.3207 19.8389 10.6745 20.0201 11.071C20.2011 11.4678 20.3306 11.9248 20.4082 12.4422H23.3185L22.0249 14.3566H20.4082C20.3046 14.9863 20.0998 15.5661 19.7936 16.0964C19.4875 16.6267 19.0844 17.0839 18.5842 17.4675C18.0839 17.8514 17.4912 18.1511 16.8057 18.3665C16.1201 18.5822 15.3504 18.6899 14.4966 18.6899L22.3614 27.0591H18.9205L11.3275 18.897V16.9825H13.2291C13.824 16.9825 14.3758 16.9265 14.8848 16.8143C15.3934 16.7023 15.8463 16.5342 16.2428 16.3099C16.6395 16.0857 16.9693 15.8119 17.2325 15.4885C17.4954 15.165 17.6788 14.788 17.7823 14.3566H10.6808L11.9744 12.4422H17.7692C17.5708 11.7006 17.1462 11.1098 16.4952 10.6701C15.844 10.2303 14.9578 10.0103 13.837 10.0103H10.6808L11.9744 8.0959H23.3185Z" fill="#FCECC6"/>
</svg>
