<svg width="24" height="24" viewBox="0 0 24 24" fill="none" xmlns="http://www.w3.org/2000/svg">
<path d="M8 20C7.45 20 6.979 19.8043 6.587 19.413C6.19567 19.021 6 18.55 6 18V4C6 3.45 6.19567 2.97933 6.587 2.588C6.979 2.196 7.45 2 8 2H9V0.975C9 0.691667 9.09567 0.458333 9.287 0.275C9.479 0.0916668 9.71667 0 10 0C10.2833 0 10.521 0.0956666 10.713 0.287C10.9043 0.479 11 0.716667 11 1V2H19V0.975C19 0.691667 19.096 0.458333 19.288 0.275C19.4793 0.0916668 19.7167 0 20 0C20.2833 0 20.5207 0.0956666 20.712 0.287C20.904 0.479 21 0.716667 21 1V2H22C22.55 2 23.021 2.196 23.413 2.588C23.8043 2.97933 24 3.45 24 4V18C24 18.55 23.8043 19.021 23.413 19.413C23.021 19.8043 22.55 20 22 20H8ZM8 18H22V8H8V18ZM8 6H22V4H8V6Z" fill="#DDC4BA"/>
</svg>
