<svg width="16" height="16" viewBox="0 0 16 16" fill="none" xmlns="http://www.w3.org/2000/svg">
<path d="M14.0005 2.00064H13.9994L15.786 2.35775C15.8819 2.37693 15.9608 2.44729 15.9885 2.54216C16.0025 2.58825 16.0038 2.63727 15.9921 2.68401C15.9805 2.73074 15.9564 2.77345 15.9224 2.80759L14.4588 4.27227C14.2837 4.44705 14.0464 4.5452 13.799 4.54516H12.5859L9.53717 7.59496C9.59533 7.81457 9.60603 8.04406 9.56855 8.26814C9.53106 8.49221 9.44626 8.70573 9.31979 8.89446C9.19331 9.08319 9.02807 9.2428 8.83507 9.36267C8.64208 9.48253 8.42575 9.55989 8.20051 9.58959C7.97527 9.61929 7.74629 9.60065 7.52882 9.53491C7.31135 9.46918 7.11038 9.35786 6.93931 9.20836C6.76824 9.05887 6.63098 8.87463 6.5367 8.66793C6.44241 8.46123 6.39325 8.23681 6.3925 8.00963C6.39266 7.76433 6.44921 7.52236 6.5578 7.30241C6.66638 7.08245 6.82407 6.89041 7.0187 6.74111C7.21333 6.59182 7.43968 6.48927 7.68026 6.4414C7.92083 6.39352 8.1692 6.4016 8.40615 6.46501L11.456 3.41414V2.20211C11.456 1.9548 11.554 1.71709 11.7288 1.54226L13.1935 0.0775944C13.2277 0.0436201 13.2704 0.0195335 13.3171 0.00789598C13.3638 -0.00374158 13.4129 -0.00249506 13.4589 0.011503C13.5538 0.0392187 13.6242 0.118102 13.6434 0.214041L14.0005 2.00064Z" fill="#3A2C23"/>
<path d="M1.59554 8.00963C1.59664 8.9242 1.79386 9.82791 2.17391 10.6598C2.55397 11.4917 3.108 12.2324 3.79865 12.8319C4.4893 13.4314 5.3005 13.8759 6.17753 14.1353C7.05455 14.3947 7.97701 14.4629 8.88266 14.3355C9.78832 14.2081 10.6561 13.8879 11.4275 13.3966C12.1989 12.9052 12.856 12.2542 13.3543 11.4873C13.8527 10.7205 14.1809 9.85566 14.3166 8.95121C14.4523 8.04676 14.3925 7.12371 14.1412 6.24435C14.1059 6.14161 14.0919 6.03277 14.1 5.92444C14.1081 5.81612 14.1382 5.71058 14.1884 5.61425C14.2386 5.51793 14.3079 5.43283 14.3921 5.36413C14.4762 5.29544 14.5735 5.24459 14.6779 5.21468C14.7823 5.18477 14.8918 5.17643 14.9995 5.19016C15.1073 5.20389 15.2111 5.2394 15.3047 5.29454C15.3983 5.34968 15.4797 5.4233 15.5439 5.5109C15.6081 5.5985 15.6539 5.69825 15.6783 5.80409C16.165 7.50704 16.0725 9.32336 15.4155 10.9681C14.7585 12.6128 13.574 13.9929 12.048 14.8919C10.522 15.7908 8.74071 16.1577 6.98364 15.935C5.22658 15.7124 3.59314 14.9127 2.3396 13.6615C1.08743 12.4083 0.286907 10.7747 0.0637194 9.01722C-0.159468 7.25974 0.207318 5.47792 1.10649 3.95148C2.00566 2.42504 3.38631 1.24044 5.03165 0.583663C6.677 -0.0731168 8.49387 -0.164883 10.197 0.322772C10.3998 0.382054 10.5709 0.5192 10.6729 0.704239C10.7749 0.889278 10.7995 1.10716 10.7413 1.31028C10.6831 1.5134 10.5469 1.68523 10.3624 1.78822C10.1779 1.89121 9.96019 1.91699 9.75676 1.85993C8.80439 1.58668 7.80156 1.53839 6.82733 1.71886C5.85311 1.89934 4.93412 2.30364 4.14282 2.89991C3.35153 3.49617 2.70955 4.26809 2.2675 5.15482C1.82545 6.04154 1.59542 7.01883 1.59554 8.00963Z" fill="#3A2C23"/>
<path d="M4.79351 8.00963C4.79358 8.59229 4.95272 9.16387 5.25377 9.66273C5.55482 10.1616 5.98636 10.5688 6.50184 10.8404C7.01732 11.112 7.59717 11.2377 8.17885 11.204C8.76053 11.1703 9.32197 10.9784 9.8026 10.649C10.2831 10.3188 10.6643 9.86352 10.9048 9.33237C11.1453 8.80122 11.236 8.21444 11.1671 7.63546C11.1484 7.49497 11.1676 7.35204 11.2226 7.22141C11.2775 7.09078 11.3663 6.97715 11.4798 6.89224C11.5932 6.80732 11.7273 6.75419 11.8681 6.7383C12.009 6.72242 12.1515 6.74436 12.281 6.80186C12.4105 6.85862 12.5227 6.9487 12.606 7.06294C12.6893 7.17717 12.7409 7.31146 12.7554 7.45211C12.8712 8.44146 12.6762 9.44232 12.1974 10.3158C11.7185 11.1893 10.9797 11.892 10.0833 12.3265C9.18697 12.761 8.17759 12.9056 7.19529 12.7404C6.21299 12.5752 5.30648 12.1083 4.6016 11.4044C3.89671 10.7006 3.42841 9.79483 3.26169 8.81278C3.09497 7.83073 3.2381 6.82113 3.67122 5.92412C4.10434 5.02711 4.80596 4.28718 5.6787 3.80703C6.55145 3.32688 7.55201 3.13033 8.54153 3.24465C8.64749 3.25448 8.75041 3.28536 8.84428 3.33549C8.93814 3.38561 9.02106 3.45397 9.08816 3.53656C9.15526 3.61914 9.2052 3.71429 9.23505 3.81643C9.26491 3.91856 9.27407 4.02563 9.26201 4.13135C9.24995 4.23708 9.2169 4.33933 9.16481 4.43212C9.11272 4.5249 9.04263 4.60636 8.95864 4.6717C8.87466 4.73705 8.77848 4.78497 8.67574 4.81267C8.573 4.84036 8.46576 4.84726 8.36032 4.83298C7.91223 4.78095 7.45822 4.82431 7.02808 4.9602C6.59795 5.09609 6.20143 5.32145 5.86456 5.62146C5.5277 5.92148 5.25812 6.28936 5.07353 6.70095C4.88894 7.11255 4.79351 7.55854 4.79351 8.00963Z" fill="#3A2C23"/>
</svg>
