<svg width="21" height="16" viewBox="0 0 21 16" fill="none" xmlns="http://www.w3.org/2000/svg">
<path d="M20.8607 7.22993C18.5776 2.42041 15.1264 0 10.4999 0C5.871 0 2.42221 2.42041 0.139072 7.23234C0.0474947 7.42626 0 7.63804 0 7.8525C0 8.06695 0.0474947 8.27874 0.139072 8.47265C2.42221 13.2822 5.87341 15.7026 10.4999 15.7026C15.1288 15.7026 18.5776 13.2822 20.8607 8.47024C21.0462 8.08009 21.0462 7.62731 20.8607 7.22993ZM10.4999 13.9686C6.61518 13.9686 3.7709 11.9985 1.76472 7.85129C3.7709 3.70408 6.61518 1.73403 10.4999 1.73403C14.3846 1.73403 17.2289 3.70408 19.2351 7.85129C17.2313 11.9985 14.387 13.9686 10.4999 13.9686ZM10.4036 3.61256C8.06262 3.61256 6.16482 5.51036 6.16482 7.85129C6.16482 10.1922 8.06262 12.09 10.4036 12.09C12.7445 12.09 14.6423 10.1922 14.6423 7.85129C14.6423 5.51036 12.7445 3.61256 10.4036 3.61256ZM10.4036 10.5487C8.91277 10.5487 7.70618 9.34207 7.70618 7.85129C7.70618 6.36051 8.91277 5.15392 10.4036 5.15392C11.8943 5.15392 13.1009 6.36051 13.1009 7.85129C13.1009 9.34207 11.8943 10.5487 10.4036 10.5487Z" fill="#DDC4BA"/>
</svg>
