<svg width="25" height="25" viewBox="0 0 25 25" fill="none" xmlns="http://www.w3.org/2000/svg">
<g clip-path="url(#clip0_64_2430)">
<path d="M25.6094 12.5C25.6127 13.5777 25.402 14.6454 24.9896 15.6412C24.5773 16.6369 23.9713 17.5409 23.207 18.3008C22.9859 18.519 22.6877 18.6414 22.377 18.6414C22.0662 18.6414 21.768 18.519 21.5469 18.3008C21.4376 18.1919 21.3509 18.0625 21.2918 17.9201C21.2326 17.7776 21.2022 17.6249 21.2022 17.4707C21.2022 17.3164 21.2326 17.1637 21.2918 17.0213C21.3509 16.8788 21.4376 16.7495 21.5469 16.6406C22.0914 16.0972 22.5233 15.4518 22.8181 14.7413C23.1128 14.0308 23.2645 13.2692 23.2645 12.5C23.2645 11.7308 23.1128 10.9691 22.8181 10.2586C22.5233 9.54809 22.0914 8.90269 21.5469 8.35934C21.3267 8.13919 21.203 7.84061 21.203 7.52927C21.203 7.21793 21.3267 6.91934 21.5469 6.69919C21.767 6.47904 22.0656 6.35536 22.377 6.35536C22.6883 6.35536 22.9869 6.47904 23.207 6.69919C23.9713 7.45904 24.5773 8.36304 24.9896 9.35878C25.402 10.3545 25.6127 11.4222 25.6094 12.5ZM17.0156 3.12497V21.875C17.0162 22.0944 16.9552 22.3096 16.8396 22.496C16.7239 22.6825 16.5582 22.8327 16.3613 22.9297C16.1996 23.0065 16.0228 23.0465 15.8437 23.0468C15.5832 23.0434 15.3304 22.958 15.1211 22.8027L8.41211 17.5781H4.125C3.60779 17.5755 3.1125 17.3689 2.74677 17.0032C2.38104 16.6375 2.17444 16.1422 2.17188 15.625V9.37497C2.17444 8.85776 2.38104 8.36246 2.74677 7.99674C3.1125 7.63101 3.60779 7.42441 4.125 7.42184H8.41211L15.1211 2.19723C15.2959 2.0636 15.5044 1.981 15.7233 1.95859C15.9422 1.93618 16.163 1.97484 16.3613 2.07028C16.5582 2.16719 16.7239 2.31743 16.8396 2.50389C16.9552 2.69035 17.0162 2.90554 17.0156 3.12497ZM4.51562 15.2343H7.64062V9.76559H4.51562V15.2343ZM14.6719 5.51755L9.98437 9.16989V15.83L14.6719 19.4824V5.51755ZM20.4434 9.46286C20.2232 9.24271 19.9246 9.11903 19.6133 9.11903C19.3019 9.11903 19.0034 9.24271 18.7832 9.46286C18.5631 9.68301 18.4394 9.9816 18.4394 10.2929C18.4394 10.6043 18.5631 10.9029 18.7832 11.123C18.9657 11.3029 19.1106 11.5173 19.2095 11.7537C19.3084 11.99 19.3593 12.2437 19.3593 12.5C19.3593 12.7562 19.3084 13.0099 19.2095 13.2463C19.1106 13.4827 18.9657 13.697 18.7832 13.8769C18.674 13.9858 18.5873 14.1152 18.5281 14.2576C18.469 14.4 18.4385 14.5528 18.4385 14.707C18.4385 14.8612 18.469 15.014 18.5281 15.1564C18.5873 15.2988 18.674 15.4282 18.7832 15.5371C18.8917 15.6467 19.021 15.7334 19.1636 15.7921C19.3062 15.8508 19.4591 15.8803 19.6133 15.8789C19.7676 15.8815 19.9209 15.8525 20.0636 15.7937C20.2064 15.7349 20.3356 15.6476 20.4434 15.5371C20.8432 15.1388 21.1604 14.6655 21.3768 14.1443C21.5933 13.6231 21.7047 13.0643 21.7047 12.5C21.7047 11.9356 21.5933 11.3768 21.3768 10.8557C21.1604 10.3345 20.8432 9.86116 20.4434 9.46286Z" fill="#FCECC6"/>
</g>
<defs>
<clipPath id="clip0_64_2430">
<rect width="25" height="25" fill="white"/>
</clipPath>
</defs>
</svg>
