<svg width="27" height="27" viewBox="0 0 27 27" fill="none" xmlns="http://www.w3.org/2000/svg">
<g opacity="0.5">
<path d="M18 4.50005H21.375C21.9717 4.50005 22.544 4.73711 22.966 5.15906C23.3879 5.58102 23.625 6.15332 23.625 6.75005V7.87505M18 22.5001H21.375C21.9717 22.5001 22.544 22.263 22.966 21.841C23.3879 21.4191 23.625 20.8468 23.625 20.2501V19.1251M10.1261 13.5001H10.125M18 13.5001H23.625M23.625 13.5001L21.375 11.2501M23.625 13.5001L21.375 15.7501M4.97813 21.8566L11.7281 23.8816C12.0641 23.9824 12.4191 24.0033 12.7646 23.9426C13.1102 23.8818 13.4367 23.7411 13.7181 23.5317C13.9996 23.3222 14.2282 23.0499 14.3857 22.7364C14.5431 22.4229 14.6251 22.0769 14.625 21.7261V5.27405C14.6251 4.92322 14.5431 4.57724 14.3857 4.26373C14.2282 3.95022 13.9996 3.67787 13.7181 3.46844C13.4367 3.25901 13.1102 3.1183 12.7646 3.05755C12.4191 2.9968 12.0641 3.01769 11.7281 3.11855L4.97813 5.14355C4.51465 5.28268 4.10837 5.56752 3.81959 5.95581C3.5308 6.3441 3.37489 6.81515 3.375 7.29905V19.7011C3.37489 20.185 3.5308 20.656 3.81959 21.0443C4.10837 21.4326 4.51465 21.7174 4.97813 21.8566Z" stroke="#FCECC6" stroke-width="2.25" stroke-linecap="round" stroke-linejoin="round"/>
</g>
</svg>
