<svg width="35" height="35" viewBox="0 0 35 35" fill="none" xmlns="http://www.w3.org/2000/svg">
<path d="M17 7C18.3261 7 19.5979 7.52678 20.5355 8.46447C21.4732 9.40215 22 10.6739 22 12C22 13.3261 21.4732 14.5979 20.5355 15.5355C19.5979 16.4732 18.3261 17 17 17C15.6739 17 14.4021 16.4732 13.4645 15.5355C12.5268 14.5979 12 13.3261 12 12C12 10.6739 12.5268 9.40215 13.4645 8.46447C14.4021 7.52678 15.6739 7 17 7ZM17 19.5C22.525 19.5 27 21.7375 27 24.5V27H7V24.5C7 21.7375 11.475 19.5 17 19.5Z" fill="#FCECC6" fill-opacity="0.5"/>
</svg>
