<svg width="5" height="8" viewBox="0 0 5 8" fill="none" xmlns="http://www.w3.org/2000/svg">
<path d="M1.20195 7.80269L4.5024 4.50224C4.57415 4.43049 4.62485 4.35277 4.65451 4.26906C4.68464 4.18535 4.69971 4.09566 4.69971 4C4.69971 3.90433 4.68464 3.81465 4.65451 3.73094C4.62485 3.64723 4.57415 3.56951 4.5024 3.49776L1.20195 0.197309C1.07041 0.0657695 0.902996 0 0.699707 0C0.496419 0 0.329005 0.0657695 0.197465 0.197309C0.0659256 0.328849 0.000155449 0.496263 0.000155449 0.699551C0.000155449 0.90284 0.0659256 1.07025 0.197465 1.20179L2.99567 4L0.197465 6.79821C0.0659256 6.92975 0.000155449 7.09716 0.000155449 7.30045C0.000155449 7.50374 0.0659256 7.67115 0.197465 7.80269C0.329005 7.93423 0.496419 8 0.699707 8C0.902996 8 1.07041 7.93423 1.20195 7.80269Z" fill="#FCECC6"/>
</svg>
