<svg width="143" height="148" viewBox="0 0 143 148" fill="none" xmlns="http://www.w3.org/2000/svg">
<mask id="mask0_19_2709" style="mask-type:luminance" maskUnits="userSpaceOnUse" x="15" y="59" width="75" height="68">
<path d="M15.2417 125.914L88.4898 59.123L89.4036 60.1252L16.1555 126.916L15.2417 125.914Z" fill="white"/>
</mask>
<g mask="url(#mask0_19_2709)">
<path d="M15.2417 125.914L88.4898 59.123L89.4036 60.1252L16.1555 126.916L15.2417 125.914Z" fill="#FCECC6"/>
</g>
<mask id="mask1_19_2709" style="mask-type:luminance" maskUnits="userSpaceOnUse" x="20" y="121" width="96" height="16">
<path d="M21.1531 121.293L115.603 135.367L115.208 136.665L20.7573 122.59L21.1531 121.293Z" fill="white"/>
</mask>
<g mask="url(#mask1_19_2709)">
<path d="M21.1531 121.293L115.603 135.367L115.208 136.665L20.7573 122.59L21.1531 121.293Z" fill="#FCECC6"/>
</g>
<mask id="mask2_19_2709" style="mask-type:luminance" maskUnits="userSpaceOnUse" x="14" y="26" width="8" height="96">
<path d="M21.2992 121.453L15.9758 26.1077L14.648 26.3824L19.9702 121.727L21.2992 121.453Z" fill="white"/>
</mask>
<g mask="url(#mask2_19_2709)">
<path d="M21.2992 121.453L15.9758 26.1077L14.648 26.3824L19.9702 121.727L21.2992 121.453Z" fill="#FCECC6"/>
</g>
<mask id="mask3_19_2709" style="mask-type:luminance" maskUnits="userSpaceOnUse" x="0" y="122" width="20" height="20">
<path d="M14.8531 126.382L15.6937 126.42L15.6549 127.261L7.32455 134.857L7.02385 141.378L15.353 133.784L16.1785 133.031L19.5182 129.986L19.8589 122.622L12.4944 122.283L8.7589 125.689L8.32922 126.081L8.47694e-05 133.676L6.52268 133.978L14.8531 126.382Z" fill="white"/>
</mask>
<g mask="url(#mask3_19_2709)">
<path d="M14.8531 126.382L15.6937 126.42L15.6549 127.261L7.32455 134.857L7.02385 141.378L15.353 133.784L16.1785 133.031L19.5182 129.986L19.8589 122.622L12.4944 122.283L8.7589 125.689L8.32922 126.081L8.47694e-05 133.676L6.52268 133.978L14.8531 126.382Z" fill="#FCECC6"/>
</g>
<mask id="mask4_19_2709" style="mask-type:luminance" maskUnits="userSpaceOnUse" x="98" y="38" width="14" height="14">
<path d="M106.074 51.4891L111.928 38.6678L98.6221 43.3165L103.666 46.2008L106.074 51.4891Z" fill="white"/>
</mask>
<g mask="url(#mask4_19_2709)">
<path d="M106.074 51.4891L111.928 38.6678L98.6221 43.3165L103.666 46.2008L106.074 51.4891Z" fill="#FCECC6"/>
</g>
<mask id="mask5_19_2709" style="mask-type:luminance" maskUnits="userSpaceOnUse" x="5" y="0" width="138" height="148">
<path d="M83.1528 65.6969C123.911 77.6725 105.668 107.789 108.579 129.182C110.592 143.973 123.646 150.236 131.936 147.291C142.341 143.595 144.928 132.507 141.463 126.384C139.541 141.755 118.103 144.087 113.406 127.683C115.737 131.86 119.324 133.57 124.043 132.777C105.404 123.676 124.581 69.222 96.8574 60.6108C103.361 59.9828 109.183 64.6263 113.096 70.2332C108.704 56.5926 96.2849 56.6406 91.8204 57.7933C93.3802 53.455 94.5708 41.0931 81.3923 35.4648C86.6153 39.8769 90.7033 46.1017 89.4796 52.5196C83.4561 24.1213 27.4676 38.2046 20.1209 18.8087C18.8978 23.4342 20.2693 27.1622 24.2148 29.8691C8.31163 23.6807 12.607 2.55021 28.089 2.04941C22.3123 -1.96341 11.0328 -0.407823 6.39431 9.61245C2.70017 17.597 7.73522 31.1717 22.2778 34.5376C43.3127 39.4054 74.9787 24.0097 83.1528 65.6969Z" fill="white"/>
</mask>
<g mask="url(#mask5_19_2709)">
<path d="M83.1528 65.6969C123.911 77.6725 105.668 107.789 108.579 129.182C110.592 143.973 123.646 150.236 131.936 147.291C142.341 143.595 144.928 132.507 141.463 126.384C139.541 141.755 118.103 144.087 113.406 127.683C115.737 131.86 119.324 133.57 124.043 132.777C105.404 123.676 124.581 69.222 96.8574 60.6108C103.361 59.9828 109.183 64.6263 113.096 70.2332C108.704 56.5926 96.2849 56.6406 91.8204 57.7933C93.3802 53.455 94.5708 41.0931 81.3923 35.4648C86.6153 39.8769 90.7033 46.1017 89.4796 52.5196C83.4561 24.1213 27.4676 38.2046 20.1209 18.8087C18.8978 23.4342 20.2693 27.1622 24.2148 29.8691C8.31163 23.6807 12.607 2.55021 28.089 2.04941C22.3123 -1.96341 11.0328 -0.407823 6.39431 9.61245C2.70017 17.597 7.73522 31.1717 22.2778 34.5376C43.3127 39.4054 74.9787 24.0097 83.1528 65.6969Z" fill="#FCECC6"/>
</g>
</svg>
