<svg width="13" height="23" viewBox="0 0 13 23" fill="none" xmlns="http://www.w3.org/2000/svg">
<path d="M9.67557 21.584L0.545801 12.4542C0.347327 12.2557 0.207073 12.0407 0.125038 11.8092C0.0416788 11.5776 0 11.3295 0 11.0649C0 10.8003 0.0416788 10.5522 0.125038 10.3206C0.207073 10.0891 0.347327 9.87404 0.545801 9.67557L9.67557 0.545801C10.0394 0.181933 10.5025 0 11.0649 0C11.6272 0 12.0903 0.181933 12.4542 0.545801C12.8181 0.909668 13 1.37277 13 1.93511C13 2.49746 12.8181 2.96056 12.4542 3.32443L4.71374 11.0649L12.4542 18.8053C12.8181 19.1692 13 19.6323 13 20.1947C13 20.757 12.8181 21.2201 12.4542 21.584C12.0903 21.9478 11.6272 22.1298 11.0649 22.1298C10.5025 22.1298 10.0394 21.9478 9.67557 21.584Z" fill="#FCECC6"/>
</svg>
