<svg xmlns="http://www.w3.org/2000/svg" version="1.0" width="256.000000pt" height="256.000000pt" viewBox="0 0 256.000000 256.000000" preserveAspectRatio="xMidYMid meet">

<g transform="translate(0.000000,256.000000) scale(0.100000,-0.100000)" fill="#fcecc6" stroke="none">
<path d="M1173 2122 c-164 -109 -304 -206 -312 -215 -12 -15 -41 -17 -250 -17 -191 0 -247 -3 -284 -16 -64 -22 -139 -91 -168 -156 -24 -53 -24 -54 -24 -438 0 -384 0 -385 24 -438 29 -65 104 -134 168 -156 37 -13 93 -16 284 -16 209 0 238 -2 250 -17 29 -35 610 -413 635 -413 14 0 36 11 49 25 l25 24 0 991 0 991 -25 24 c-13 14 -35 25 -49 25 -16 0 -134 -72 -323 -198z" fill="#fcecc6"/>
<path d="M1765 1655 c-16 -15 -25 -35 -25 -56 0 -27 16 -49 112 -146 l112 -113 -111 -112 c-61 -62 -114 -123 -117 -135 -16 -50 47 -113 97 -97 12 3 73 56 135 117 l112 111 113 -111 c61 -61 122 -114 134 -117 50 -16 113 47 97 97 -3 12 -56 73 -117 135 l-111 112 112 113 c96 97 112 119 112 146 0 43 -38 81 -81 81 -27 0 -49 -16 -146 -112 l-113 -112 -113 112 c-97 96 -119 112 -146 112 -21 0 -41 -9 -56 -25z" fill="#fcecc6"/>
</g>
</svg>